<?xml version="1.0" encoding="UTF-8" standalone="no"?>
<!DOCTYPE svg PUBLIC "-//W3C//DTD SVG 1.1//EN" "http://www.w3.org/Graphics/SVG/1.1/DTD/svg11.dtd">
<svg version="1.1" xmlns="http://www.w3.org/2000/svg" xmlns:xlink="http://www.w3.org/1999/xlink" preserveAspectRatio="xMidYMid meet" viewBox="0 0 640 640" width="640" height="640"><defs><path d="M0 641.51L0 0L640 0L640 641.51L0 641.51Z" id="g18uv3Yas"></path><path d="M473.98 93.36C470.89 84.24 467.34 77.75 462.82 71.93C458.3 66.12 452.84 60.97 446.92 55.29C440.96 49.61 434.57 43.44 428.22 38.88C421.91 34.36 415.66 31.49 414.12 31.49C412.57 31.49 415.73 34.36 417.78 36.95C419.86 39.59 420.79 41.92 417.42 41.74C414.08 41.56 406.4 38.79 401.23 37.4C396.1 36.01 393.48 36.01 390.93 37.67C388.35 39.28 385.84 42.54 382.64 45.94C379.49 49.34 375.68 52.88 373.92 53.28C372.13 53.68 372.38 50.91 373.78 47.06C375.21 43.21 377.83 38.29 377.19 38.03C376.58 37.8 372.7 42.23 369.9 46.39C367.14 50.51 365.49 54.35 364.7 54.49C363.91 54.58 363.98 50.91 364.81 47.11C365.63 43.3 367.21 39.37 365.88 40.71C364.52 42.05 360.25 48.63 358.24 54.71C356.23 60.8 356.48 66.3 355.8 67.64C355.12 68.98 353.54 66.12 353.11 61.11C352.68 56.14 353.39 49.03 352.07 49.75C350.77 50.42 347.44 58.92 345 65.76C342.52 72.61 340.94 77.84 340.29 83.66C339.61 89.47 339.86 95.91 341.12 101.82C342.38 107.72 344.67 113.14 345.71 118.19C346.72 123.2 346.5 127.85 346.43 133.67C346.32 139.48 346.43 146.51 347.87 152.95C349.34 159.39 352.17 165.34 354.11 169.5C356.09 173.71 357.09 176.17 357.45 177.6C357.81 178.99 357.49 179.34 356.01 180.24C354.58 181.18 351.96 182.65 349.45 184.22C346.93 185.79 344.53 187.49 343.45 188.87C342.41 190.26 342.74 191.33 343.09 192.63C343.49 193.93 343.92 195.45 344.57 196.39C345.21 197.28 346.11 197.6 346.93 198.13C347.76 198.71 348.55 199.56 349.98 202.29C351.42 205.02 353.54 209.67 355.48 213.16C357.45 216.65 359.28 219.02 361.15 220.37C363.01 221.71 364.99 221.98 366.49 222.11C368.04 222.2 369.19 222.11 371.7 227.52C374.21 232.94 378.12 243.9 382.82 253.11C387.52 262.33 393.05 269.84 396.89 274.81C400.73 279.82 402.88 282.28 404.5 285.5C406.11 288.77 407.23 292.84 409.09 295.39C410.96 297.94 413.54 299.01 415.91 299.41C418.32 299.82 420.43 299.55 419.57 301.25C418.71 302.99 414.84 306.71 411.1 311.36C407.37 316.01 403.82 321.51 401.34 329.52C398.83 337.48 397.39 347.95 397.25 357.35C397.11 366.7 398.22 374.97 398.36 384.05C398.51 393.13 397.72 402.98 397.57 411.79C397.39 420.56 397.9 428.25 397.11 434.96C396.32 441.67 394.24 447.4 391.9 450.26C389.57 453.12 386.95 453.12 384.26 453.89C381.6 454.69 378.8 456.26 376.51 458.22C374.21 460.19 372.42 462.56 370.87 462.79C369.33 462.97 368.04 461 365.85 461.31C363.62 461.58 360.46 464.13 358.17 465.87C355.87 467.62 354.44 468.47 352.71 468.38C350.95 468.29 348.91 467.22 345.25 467.57C341.62 467.89 336.42 469.68 331.86 471.02C327.3 472.32 323.43 473.21 320.05 473.61C316.72 474.02 313.85 473.93 312.16 474.33C310.44 474.69 309.9 475.58 308.82 475.54C307.74 475.49 306.16 474.51 303.76 474.46C301.36 474.42 298.09 475.31 292.42 473.97C286.71 472.63 278.57 469.1 273.15 466.68C267.73 464.26 265.04 462.97 262.88 462.92C260.77 462.88 259.19 464.04 257.5 464.62C255.85 465.25 254.09 465.25 252.58 466.14C251.04 466.99 249.68 468.78 245.3 471.42C240.88 474.02 233.45 477.46 229.36 480.32C225.31 483.19 224.59 485.47 223.3 489.85C221.97 494.24 220.07 500.72 219.14 506.67C218.96 507.88 218.78 509.09 218.67 510.21C217.8 510.13 213.46 509.76 205.64 509.09C176.01 397.94 159.55 336.19 156.26 323.84C154.79 318.34 151.7 315.38 147.25 314.98C134.33 315.34 31 318.16 18.09 318.52C12.53 319.1 10.19 323.57 11.81 330.51C14.93 343.02 30.57 405.61 58.71 518.26L0.11 518.26L0.11 641.51C383.7 641.51 596.8 641.51 639.43 641.51C640.04 637.3 639.93 629.61 639.86 613.19C639.78 591.58 639.78 554.9 639.46 522.82C639.14 490.79 638.53 463.37 636.7 439.79C634.87 416.22 631.85 396.49 626.51 378.55C621.12 360.57 613.37 344.42 604.79 328.31C596.25 312.25 586.92 296.28 576.73 284.03C566.5 271.81 555.45 263.31 547.12 258.7C538.83 254.05 533.27 253.25 529.46 251.59C525.7 249.89 523.61 247.34 520.38 243.81C517.12 240.23 512.7 235.71 509.47 233.43C506.21 231.19 504.16 231.19 502.44 231.46C500.72 231.73 499.32 232.27 497.95 230.48C496.55 228.64 495.19 224.53 493.65 217.86C492.1 211.2 490.38 202.03 489.52 196.88C488.69 191.78 488.69 190.66 489.45 189.19C490.2 187.71 491.71 185.83 492.96 182.57C494.26 179.3 495.33 174.6 495.44 169.32C495.58 164 494.72 158.09 493.47 151.21C492.21 144.32 490.52 136.49 488.87 132.28C487.26 128.03 485.72 127.45 484.64 127.27C483.6 127.09 482.99 127.36 482.66 127.23C482.34 127.05 482.31 126.51 480.98 120.38C479.69 114.25 477.07 102.49 473.98 93.36Z" id="b2mVGA0Sn6"></path><path d="M500.47 235.08C501.22 236.2 502.12 237.01 502.01 238.75C501.87 240.5 500.72 243.23 496.91 249.8C493.11 256.42 486.61 266.94 481.27 274.63C475.92 282.33 471.75 287.25 467.23 293.11C462.71 299.01 457.87 305.9 454.31 311.31C450.8 316.68 448.61 320.66 447.31 322.72C446.06 324.82 445.7 325.05 445.45 325.09C445.16 325.09 444.91 324.91 443.76 322.94C442.58 320.93 440.5 317.13 438.2 313.42C435.9 309.75 433.39 306.12 431.67 303.62C429.94 301.11 428.98 299.68 427.86 299.06C426.75 298.47 425.53 298.65 424.13 298.97C422.59 299.32 421.58 299.55 420.65 299.91C420.22 300.09 419.9 300.62 419.57 301.25C418.71 302.99 414.84 306.71 411.1 311.36C407.37 316.01 403.82 321.51 401.34 329.52C398.83 337.48 397.39 347.95 397.25 357.35C397.11 366.7 398.22 374.97 398.36 384.05C398.51 393.13 397.72 402.98 397.57 411.79C397.39 420.56 397.9 428.25 397.11 434.96C396.32 441.67 394.24 447.4 391.9 450.26C389.57 453.12 386.95 453.12 384.26 453.89C381.6 454.69 378.8 456.26 376.51 458.22C374.21 460.19 372.42 462.56 370.87 462.79C369.33 462.97 368.04 461 365.85 461.31C363.62 461.58 360.46 464.13 358.17 465.87C355.87 467.62 354.44 468.47 352.71 468.38C350.95 468.29 348.91 467.22 345.25 467.57C341.62 467.89 336.42 469.68 331.86 471.02C327.3 472.32 323.43 473.21 320.05 473.61C316.72 474.02 313.85 473.93 312.16 474.33C311.23 474.51 310.65 474.87 310.11 475.18C310.11 475.22 310.11 475.27 310.15 475.27C310.36 475.45 311.91 475.36 313.95 475.72C316 476.07 318.55 476.92 320.52 478.31C322.53 479.7 324 481.67 325.04 484.35C326.12 487.03 326.76 490.48 326.91 493.48C327.05 496.52 326.66 499.16 325.69 502.02C324.68 504.88 323.1 507.93 321.6 509.76C320.09 511.59 318.73 512.22 317.33 512.4C315.96 512.58 314.56 512.27 313.49 512.04C312.45 511.82 311.73 511.64 311.15 511.73C310.62 511.86 310.26 512.31 310.36 513.16C310.44 514.01 310.97 515.26 312.34 516.34C313.7 517.45 315.85 518.35 319.16 518.98C322.46 519.6 327.02 519.74 330.03 520C333.08 520.27 336.24 520.59 338.75 520.81C341.26 520.99 343.88 521.44 348.98 521.93C354.04 522.42 361.61 523.09 368.18 523.14C374.75 523.18 380.27 522.33 385.51 521.35C390.75 520.36 395.74 519.2 398.9 519.56C402.06 519.91 403.39 521.75 404.5 522.91C405.58 524.08 406.4 524.66 407.19 524.61C407.98 524.61 408.73 523.99 409.31 523.27C409.88 522.51 410.28 521.61 410.64 523.54C410.96 525.46 411.25 530.2 411.68 533.6C412.11 537 412.72 539.11 414.33 542.28C415.98 545.46 418.68 549.75 420.65 552.75C422.59 555.75 423.81 557.49 423.16 557.72C422.48 557.94 419.9 556.64 417.28 556.55C414.66 556.46 411.96 557.54 409.09 558.03C406.26 558.52 403.24 558.43 400.77 557.4C398.25 556.42 396.28 554.5 394.38 553.29C392.44 552.12 390.57 551.68 384.62 551.54C378.66 551.41 368.61 551.63 360.32 551.41C352.07 551.18 345.53 550.51 341.73 550.16C337.96 549.75 336.92 549.57 334.3 550.38C331.65 551.14 327.38 552.8 323.79 555.79C320.23 558.83 317.4 563.17 315.42 568.45C313.45 573.73 312.34 579.91 312.48 586.03C312.66 592.16 314.06 598.16 315.53 602.81C316.97 607.42 318.47 610.64 319.62 612.38C319.98 612.92 320.27 613.28 320.56 614.04C321.17 614.22 321.78 614.44 322.39 614.71C325.98 616.23 329.74 619 331.83 621.29C333.87 623.57 334.19 625.31 333.8 629.25C333.44 632.78 332.51 638.02 333.01 641.51C363.65 641.51 608.78 641.51 639.43 641.51C640.04 637.3 639.93 629.61 639.86 613.19C639.78 591.58 639.78 554.9 639.46 522.82C639.14 490.79 638.53 463.37 636.7 439.79C634.87 416.22 631.85 396.49 626.51 378.55C621.12 360.57 613.37 344.42 604.79 328.31C596.25 312.25 586.92 296.28 576.73 284.03C566.5 271.81 555.45 263.31 547.12 258.7C538.83 254.05 533.27 253.25 529.46 251.59C525.7 249.89 523.61 247.34 520.38 243.81C517.12 240.23 512.7 235.71 509.47 233.43C506.21 231.19 504.16 231.19 502.44 231.46C501.4 231.6 500.47 231.86 499.6 231.64C499.42 233.25 499.89 234.23 500.47 235.08Z" id="alns2Dudr"></path><path d="M490.78 354.53C484.75 366.79 476.2 379.98 468.38 398.41C460.52 416.89 453.42 440.55 448.82 460.86C444.23 481.17 442.18 498.13 440.93 512.85C439.63 527.52 439.17 539.96 438.59 547.2C437.98 554.45 437.27 556.55 438.45 556.96C439.63 557.31 442.72 556.06 445.38 555.75C448.03 555.43 450.26 556.15 453.06 556.02C455.86 555.84 459.27 554.85 462.78 554.72C466.3 554.58 469.96 555.26 472.83 557.09C475.74 558.92 477.86 561.88 479.9 567.87C481.91 573.91 483.81 582.99 484.21 582.1C484.6 581.2 483.49 570.33 481.7 563.04C479.94 555.75 477.46 551.99 477.03 549.93C476.6 547.87 478.18 547.47 480.87 549.89C483.56 552.3 487.37 557.54 490.45 561.34C493.54 565.14 495.91 567.47 499.25 573.51C502.55 579.5 506.82 589.21 509.72 598.29C512.6 607.42 514.1 616.01 514.57 614.75C515.07 613.46 514.5 602.32 510.48 590.82C506.42 579.32 498.92 567.47 493.68 560.31C488.48 553.11 485.54 550.51 484.82 547.79C484.1 545.01 485.61 542.06 489.09 540.49C492.57 538.97 498.06 538.88 504.09 541.43C510.16 544.03 516.79 549.26 522.25 553.02C527.7 556.82 531.98 559.19 532.55 557.05C533.09 554.85 529.93 548.14 523.47 543.04C517.05 537.9 507.32 534.36 500.03 532.89C492.75 531.37 487.9 531.99 486.72 528.41C485.54 524.88 488.01 517.19 490.56 511.59C493.14 506.05 495.84 502.6 496.63 496.47C497.41 490.34 496.3 481.58 498.53 473.48C500.75 465.38 506.28 458 511.48 452.01C516.72 445.97 521.64 441.31 522.07 440.15C522.5 438.99 518.45 441.23 518.73 439.84C519.02 438.5 523.61 433.44 530.18 428.88C536.75 424.27 545.29 420.11 554.94 417.69C564.6 415.28 575.36 414.61 576.98 413.31C578.59 412.06 571.09 410.18 563.52 410.49C555.98 410.85 548.38 413.4 539.87 418.54C531.37 423.69 521.93 431.38 515.11 438.23C508.25 445.07 503.98 451.11 501.69 448.03C499.39 444.98 499.07 432.86 498.74 420.74C498.46 408.57 498.13 396.45 498.99 384.1C499.86 371.71 501.94 359.09 503.77 346.7C505.63 334.31 507.32 322.18 509.08 312.88C510.87 303.53 512.78 297.04 511.88 298.65C511.02 300.26 507.39 310.06 503.84 320.57C500.25 331.04 496.77 342.32 490.78 354.53Z" id="bzzUE6Rlb"></path><path d="M500.9 234.41C501.61 234.91 502.8 234.77 503.52 235.17C504.2 235.62 504.45 236.65 502.58 242.91C500.68 249.13 496.7 260.58 493.22 270.56C489.73 280.54 486.76 289.08 483.2 300.76C479.61 312.43 475.42 327.19 471.22 341.24C467.02 355.29 462.82 368.53 459.09 381.68C455.32 394.83 451.98 407.85 450.22 414.61C448.46 421.41 448.28 421.94 446.99 428.97C445.74 435.99 443.4 449.5 441.57 467.62C439.74 485.74 438.38 508.42 437.84 523.85C437.3 539.33 437.55 547.61 437.8 551.9C438.06 556.2 438.23 556.55 437.23 557.36C436.26 558.16 434.04 559.42 432.1 559.91C430.16 560.4 428.47 560.09 427.15 555.84C425.78 551.59 424.78 543.4 423.59 533.16C422.41 522.91 421.04 510.57 420.18 501.17C419.32 491.73 418.93 485.2 418.78 474.87C418.68 464.49 418.82 450.31 419.32 440.2C419.79 430.09 420.58 424.05 419.57 417.78C418.6 411.52 415.84 405.03 416.02 396.76C416.24 388.48 419.39 378.42 422.26 369.38C425.17 360.34 427.79 352.38 429.77 346.25C431.74 340.12 433.07 335.87 433.96 331.98C434.83 328.09 435.22 324.56 435.11 320.39C435.04 316.64 434.57 312.39 434.11 307.15C435.4 309.08 436.84 311.22 438.2 313.42C440.5 317.13 442.58 320.93 443.76 322.94C444.91 324.91 445.16 325.09 445.45 325.09C445.7 325.05 446.06 324.82 447.31 322.72C448.61 320.66 450.8 316.68 454.31 311.31C457.87 305.9 462.71 299.01 467.23 293.11C471.75 287.25 475.92 282.33 481.27 274.63C486.61 266.94 493.11 256.42 496.91 249.8C500.72 243.23 501.87 240.5 502.01 238.75C502.12 237.01 501.22 236.2 500.47 235.08C499.96 234.37 499.53 233.47 499.57 232.22C499.93 232.98 500.21 233.97 500.9 234.41Z" id="aelqzOTLl"></path><path d="M447.35 429.06C445.05 441.85 443.26 454.69 441.93 467.66C441.18 475.05 440.57 482.43 440.03 489.81C439.24 501.13 438.59 512.53 438.2 523.9C437.88 533.11 437.66 542.69 438.16 551.86C438.2 552.53 438.23 553.15 438.27 553.78C438.38 554.72 438.49 555.57 438.27 556.51C438.16 557.09 437.84 557.45 437.45 557.76C436.05 558.88 433.82 559.95 432.17 560.36C429.23 561.07 427.86 559.37 426.82 556.02C425.92 553.2 425.39 549.8 424.96 546.85C424.27 542.33 423.74 537.76 423.23 533.2C422.01 522.55 420.83 511.91 419.82 501.22C419.36 496.29 418.96 491.37 418.75 486.36C418.93 480.06 419.07 473.75 419.29 467.44C419.47 461.54 419.75 455.59 420.08 449.68C420.47 442.79 420.94 435.9 421.58 429.06C422.12 423.24 422.84 417.52 423.95 411.83C424.92 406.82 426.25 401.9 427.22 396.89C427.61 394.79 427.93 392.69 428.29 390.54C428.54 388.93 428.76 387.23 429.12 385.62C429.37 384.55 429.69 383.61 430.05 382.58C430.16 382.26 430.45 381.5 430.45 381.15C430.45 380.65 429.69 379.89 429.48 379.31C429.05 378.15 429.8 372.96 429.91 371.71C430.63 364.77 431.2 357.39 432.38 350.55C432.74 348.53 433.17 346.48 433.86 344.55C434.18 343.61 434.65 342.63 434.9 341.69C435.33 340.12 435.22 337.89 435.36 336.14C435.54 333.86 436.05 331.09 437.23 329.21C438.27 327.6 439.99 326.48 441.72 326.7C443.04 326.84 444.37 328.04 444.26 329.83C444.19 331.44 443.08 332.79 442.61 334.22C442.25 335.29 442.72 335.69 443.55 335.92C444.3 336.1 445.13 336.14 445.88 336.19C446.88 336.28 447.92 336.41 448.89 336.72C451.19 337.48 453.67 339.36 455.78 340.75C458.73 342.72 461.78 344.6 464.79 346.43C465.29 346.74 467.48 347.82 467.52 348.67C467.52 348.8 467.48 348.94 467.45 349.07C467.2 349.7 465.51 351.04 465.01 351.49C463.21 353.05 461.67 354.71 460.38 356.9C458.66 359.81 457.33 363.43 456 366.61C454.71 369.6 452.84 373.45 452.05 376.63C451.41 379.18 451.91 381.1 452.05 383.65C452.3 387.9 451.98 392.64 451.55 396.85C450.98 402.04 450.04 407.14 449.4 412.33C449.11 414.61 449.18 416.13 449.58 418.45C449.58 418.5 449.58 418.59 449.54 418.68C448.64 422.17 448 425.48 447.35 429.06Z" id="iWuBVZvbs"></path><path d="M453.2 343.12C454.46 344.15 455.25 346.65 454.17 351.13C453.09 355.6 450.19 362.13 448.28 366.47C446.38 370.81 445.52 372.96 446.13 373.72C446.74 374.44 448.82 373.76 448.75 374.26C448.68 374.75 446.42 376.4 444.37 377.79C442.33 379.18 440.53 380.25 441.14 380.61C441.75 380.92 444.8 380.47 446.6 380.16C448.39 379.8 448.93 379.62 450.29 379.04C451.62 378.51 453.77 377.57 453.67 383.56C453.56 389.56 451.23 402.48 448.21 416.76C445.2 431.07 441.54 446.77 439.1 462.92C436.69 479.12 435.51 495.76 434.57 490.39C433.68 485.02 433.03 457.6 432.71 437.78C432.42 417.96 432.42 405.71 433.1 395.1C433.82 384.5 435.26 375.55 437.66 367.9C440.07 360.25 443.47 353.95 445.45 349.97C447.46 346.03 448 344.46 449.11 343.48C450.26 342.49 451.94 342.09 453.2 343.12Z" id="a6Xsm3g8OV"></path><path d="M356.44 554.45C353.43 557 350.34 560.67 347.47 564.83C344.57 568.99 341.87 573.69 340.08 578.07C338.29 582.45 337.39 586.57 336.63 593.1C335.92 599.68 335.34 608.71 334.95 614.71C334.59 619.54 334.34 622.4 333.62 624.19C333.3 623.16 332.72 622.27 331.83 621.29C329.74 619 325.98 616.23 322.39 614.71C321.78 614.44 321.17 614.22 320.56 614.04C320.27 613.28 319.98 612.92 319.62 612.38C318.47 610.64 316.97 607.42 315.53 602.81C314.06 598.16 312.66 592.16 312.48 586.03C312.34 579.91 313.45 573.73 315.42 568.45C317.4 563.17 320.23 558.83 323.79 555.79C327.38 552.8 331.65 551.14 334.3 550.38C336.92 549.57 337.96 549.75 341.73 550.16C345.53 550.51 352.07 551.18 360.32 551.41C360.34 551.41 360.44 551.41 360.61 551.41C358.77 552.66 357.38 553.68 356.44 554.45Z" id="f46nG1barK"></path><path d="M332.58 473.43C334.88 474.06 337.21 475.18 339.22 477.55C341.19 479.88 342.84 483.37 343.67 487.44C344.53 491.55 344.6 496.25 344.42 500.37C344.21 504.53 343.78 508.1 343.09 511.01C342.41 513.88 341.44 516.07 340.51 517.45C339.65 518.75 338.79 519.38 336.02 520.14C334.34 520.09 332.54 520.09 330.32 520.05C326.87 519.91 322.46 519.6 319.16 518.98C315.85 518.35 313.7 517.45 312.34 516.34C310.97 515.26 310.44 514.01 310.36 513.16C310.29 512.44 310.51 512.04 310.9 511.82C311.51 513.07 311.8 513.97 312.52 514.64C313.31 515.35 314.67 515.71 316.21 515.22C317.72 514.73 319.37 513.38 320.88 511.73C322.35 510.07 323.68 508.1 324.76 505.87C325.83 503.63 326.66 501.08 327.12 498.49C327.55 495.85 327.59 493.16 327.23 490.43C326.87 487.71 326.15 484.98 325.04 482.74C323.97 480.46 322.49 478.76 320.92 477.6C319.3 476.43 317.58 475.85 315.78 475.54C313.95 475.27 312.05 475.27 310.47 475.05C310.46 475.05 310.34 475.05 310.33 475.05C310.79 474.78 311.33 474.51 312.16 474.33C313.85 473.93 316.72 474.02 320.05 473.61C322.06 473.39 324.25 472.99 326.66 472.41C328.42 472.72 330.5 472.85 332.58 473.43Z" id="a1rdP4USo"></path><path d="M332.58 473.43C334.88 474.06 337.21 475.18 339.22 477.55C341.19 479.88 342.84 483.37 343.67 487.44C344.53 491.55 344.6 496.25 344.42 500.37C344.21 504.53 343.78 508.1 343.09 511.01C342.41 513.88 341.44 516.07 340.51 517.45C339.18 519.42 336.96 520.14 334.98 520.14C333.58 520.09 332.08 520.09 330.32 520.05C326.87 519.91 322.46 519.6 319.16 518.98C315.85 518.35 313.7 517.45 312.34 516.34C310.97 515.26 310.44 514.01 310.36 513.16C310.29 512.44 310.51 512.04 310.9 511.82C311.51 513.07 311.8 513.97 312.52 514.64C313.31 515.35 314.67 515.71 316.21 515.22C317.72 514.73 319.37 513.38 320.88 511.73C322.35 510.07 323.68 508.1 324.76 505.87C325.83 503.63 326.66 501.08 327.12 498.49C327.55 495.85 327.59 493.16 327.23 490.43C326.87 487.71 326.15 484.98 325.04 482.74C323.97 480.46 322.49 478.76 320.92 477.6C319.3 476.43 317.58 475.85 315.78 475.54C313.95 475.27 312.05 475.27 310.47 475.05C310.46 475.05 310.34 475.05 310.33 475.05C310.79 474.78 311.33 474.51 312.16 474.33C313.85 473.93 316.72 474.02 320.05 473.61C322.06 473.39 324.25 472.99 326.66 472.41C328.42 472.72 330.5 472.85 332.58 473.43Z" id="a1kvuWD9FX"></path><path d="M292.64 521.17C289.33 520.54 286.64 518.26 284.13 517.68C281.62 517.1 279.28 518.26 276.56 518.62C273.79 518.93 270.6 518.44 268.48 517.19C266.4 515.98 265.4 514.01 264.79 512.09C264.18 510.21 263.92 508.37 264.1 506.58C264.25 504.84 264.82 503.09 265.32 502.02C265.83 500.99 266.29 500.59 266.01 500.05C265.68 499.56 264.57 498.89 263.13 499.47C261.73 500.05 259.98 501.8 258.54 502.92C257.11 503.99 255.96 504.39 253.91 507.03C251.9 509.72 249.03 514.64 247.31 517.45C245.59 520.32 245.01 521.03 246.09 521.03C247.13 521.03 249.78 520.32 251.69 520.32C253.55 520.32 254.7 521.03 256.64 521.03C258.58 520.99 261.34 520.23 263.78 520.32C266.26 520.45 268.48 521.48 270.46 522.87C272.39 524.25 274.12 526 277.67 528.24C281.22 530.52 286.64 533.34 290.59 535.93C294.5 538.57 296.98 540.99 299.49 542.82C302 544.61 304.59 545.86 309.79 546.94C315.03 547.96 322.89 548.86 327.41 549.4C329.56 549.66 330.96 549.84 331.79 551.18C329.35 552.12 326.37 553.65 323.79 555.79C320.23 558.83 317.4 563.17 315.42 568.45C313.45 573.73 312.34 579.91 312.48 586.03C312.66 592.16 314.06 598.16 315.53 602.81C316.97 607.42 318.47 610.64 319.62 612.38C319.98 612.92 320.27 613.28 320.56 614.04C312.27 611 299.13 597.22 294.14 597.67C291.92 597.84 288.04 598.11 283.16 597.17C278.24 596.23 272.32 594.04 267.19 591.49C262.09 588.94 257.82 585.94 253.41 583.48C248.96 581.02 244.36 579.06 240.24 576.73C236.07 574.45 232.34 571.76 228.57 568.86C224.84 565.95 221.04 562.77 218.24 561.25C215.4 559.73 213.61 559.82 212.42 561.21C211.2 562.59 210.67 565.23 209.73 568.5C208.76 571.76 207.44 575.61 205.57 577.22C203.7 578.88 201.33 578.25 199.97 576.91C198.64 575.52 198.32 573.33 197.82 571.99C197.28 570.69 196.6 570.2 196.35 568.72C196.09 567.24 196.35 564.74 196.78 561.97C197.21 559.15 197.85 555.97 199.32 552.21C200.76 548.5 203.06 544.16 205.17 540.14C207.26 536.15 209.16 532.49 211.28 530.29C213.36 528.06 215.65 527.3 216.84 526.36C218.02 525.42 218.09 524.3 218.13 521.12C218.17 517.9 218.17 512.58 219.14 506.67C220.07 500.72 221.97 494.24 223.3 489.85C224.59 485.47 225.31 483.19 229.36 480.32C233.45 477.46 240.88 474.02 245.3 471.42C249.68 468.78 251.04 466.99 252.58 466.14C254.09 465.25 255.85 465.25 257.5 464.62C259.19 464.04 260.77 462.88 262.88 462.92C265.04 462.97 267.73 464.26 273.15 466.68C278.57 469.1 286.71 472.63 292.42 473.97C298.09 475.31 301.36 474.42 303.76 474.46C306.16 474.51 307.74 475.49 308.82 475.54C309.39 475.58 309.83 475.31 310.33 475.05C310.34 475.05 310.46 475.05 310.47 475.05C312.05 475.27 313.95 475.27 315.78 475.54C317.58 475.85 319.3 476.43 320.92 477.6C322.49 478.76 323.97 480.46 325.04 482.74C326.15 484.98 326.87 487.71 327.23 490.43C327.59 493.16 327.55 495.85 327.12 498.49C326.66 501.08 325.83 503.63 324.76 505.87C323.68 508.1 322.35 510.07 320.88 511.73C319.37 513.38 317.72 514.73 316.21 515.22C314.67 515.71 313.31 515.35 312.52 514.64C311.87 514.05 311.58 513.34 311.15 512.31C311.05 512.09 310.97 511.86 310.9 511.77C310.72 511.42 310.58 511.91 310.29 512.58C309.07 515.71 305.27 517.63 302.9 519.02C299.74 520.85 295.9 521.84 292.64 521.17Z" id="c2KG4YX1C4"></path><path d="M396.89 274.81C400.73 279.82 402.88 282.28 404.5 285.5C406.11 288.77 407.23 292.84 409.09 295.39C410.96 297.94 413.54 299.01 415.91 299.41C417.63 299.73 419.21 299.64 419.64 300.22C422.23 299.41 423.23 299.19 424.13 298.97C425.53 298.65 426.75 298.47 427.86 299.06C428.98 299.68 429.94 301.11 431.67 303.62C432.38 304.65 433.21 305.86 434.11 307.15C435.4 309.08 436.84 311.22 438.2 313.42C440.5 317.13 442.58 320.93 443.76 322.94C444.91 324.91 445.16 325.09 445.45 325.09C445.7 325.05 446.06 324.82 447.31 322.72C448.61 320.66 450.8 316.68 454.31 311.31C457.87 305.9 462.71 299.01 467.23 293.11C471.75 287.25 475.92 282.33 481.27 274.63C486.61 266.94 493.11 256.42 496.91 249.8C500.72 243.23 501.87 240.5 502.01 238.75C502.12 237.01 501.22 236.2 500.47 235.08C499.96 234.37 499.53 233.47 499.57 232.22C499.57 232.04 499.57 231.86 499.6 231.64C499.03 231.51 498.49 231.15 497.95 230.48C496.55 228.64 495.19 224.53 493.65 217.86C492.1 211.2 490.38 202.03 489.52 196.88C488.69 191.78 488.69 190.66 489.45 189.19C490.2 187.71 491.71 185.83 492.96 182.57C494.26 179.3 495.33 174.6 495.44 169.32C495.58 164 494.72 158.09 493.47 151.21C492.21 144.32 490.52 136.49 488.87 132.28C487.26 128.03 485.72 127.45 484.64 127.27C483.6 127.09 482.99 127.36 482.66 127.23C482.34 127.05 482.31 126.51 480.98 120.38C479.69 114.25 477.07 102.49 473.98 93.36C470.89 84.24 467.34 77.75 462.82 71.93C458.3 66.12 452.84 60.97 446.92 55.29C440.96 49.61 434.57 43.44 428.22 38.88C421.91 34.36 415.66 31.49 414.12 31.49C412.57 31.49 415.73 34.36 417.78 36.95C419.86 39.59 420.79 41.92 417.42 41.74C414.08 41.56 406.4 38.79 401.23 37.4C396.1 36.01 393.48 36.01 390.93 37.67C388.35 39.28 385.84 42.54 382.64 45.94C379.49 49.34 375.68 52.88 373.92 53.28C372.13 53.68 372.38 50.91 373.78 47.06C375.21 43.21 377.83 38.29 377.19 38.03C376.58 37.8 372.7 42.23 369.9 46.39C367.14 50.51 365.49 54.35 364.7 54.49C363.91 54.58 363.98 50.91 364.81 47.11C365.63 43.3 367.21 39.37 365.88 40.71C364.52 42.05 360.25 48.63 358.24 54.71C356.23 60.8 356.48 66.3 355.8 67.64C355.12 68.98 353.54 66.12 353.11 61.11C352.68 56.14 353.39 49.03 352.07 49.75C350.77 50.42 347.44 58.92 345 65.76C342.52 72.61 340.94 77.84 340.29 83.66C339.61 89.47 339.86 95.91 341.12 101.82C342.38 107.72 344.67 113.14 345.71 118.19C346.72 123.2 346.5 127.85 346.43 133.67C346.32 139.48 346.43 146.51 347.87 152.95C349.34 159.39 352.17 165.34 354.11 169.5C356.09 173.71 357.09 176.17 357.45 177.6C357.81 178.99 357.49 179.34 356.01 180.24C354.58 181.18 351.96 182.65 349.45 184.22C346.93 185.79 344.53 187.49 343.45 188.87C342.41 190.26 342.74 191.33 343.09 192.63C343.49 193.93 343.92 195.45 344.57 196.39C345.21 197.28 346.11 197.6 346.93 198.13C347.76 198.71 348.55 199.56 349.98 202.29C351.42 205.02 353.54 209.67 355.48 213.16C357.45 216.65 359.28 219.02 361.15 220.37C363.01 221.71 364.99 221.98 366.49 222.11C368.04 222.2 369.19 222.11 371.7 227.52C374.21 232.94 378.12 243.9 382.82 253.11C387.52 262.33 393.05 269.84 396.89 274.81Z" id="aWPBBnyl"></path><path d="M479.83 129.29C478.5 130.85 477.03 133.8 475.49 136.94C473.94 140.07 472.33 143.38 471 145.66C469.67 147.98 468.63 149.24 468.38 152.01C468.09 154.74 468.56 158.9 469.42 163.15C470.32 167.4 471.58 171.69 472.4 176.26C473.19 180.87 473.55 185.74 472.83 187.89C472.08 190.04 470.28 189.45 468.96 185.88C467.63 182.34 466.8 175.85 464.36 166.37C461.96 156.89 457.97 144.45 453.09 135.5C448.21 126.51 442.51 121.01 439.49 114.3C436.48 107.63 436.19 99.8 433.39 95.78C430.55 91.75 425.17 91.53 420.72 91.8C416.31 92.07 412.83 92.74 407.8 96.4C402.78 100.03 396.21 106.65 389.64 110.23C383.07 113.85 376.51 114.43 371.12 115.28C365.74 116.09 361.54 117.21 358.53 120.03C355.51 122.8 353.72 127.36 352.96 133.76C352.21 140.16 352.53 148.48 353.18 155.41C353.82 162.34 354.83 167.89 355.58 171.65C355.69 172.32 355.83 172.95 355.87 173.48C355.37 172.37 354.79 171.07 354.08 169.5C352.14 165.34 349.27 159.39 347.83 152.95C346.36 146.51 346.29 139.48 346.36 133.67C346.43 127.85 346.68 123.2 345.64 118.19C344.6 113.14 342.3 107.72 341.05 101.82C339.79 95.91 339.54 89.47 340.22 83.66C340.91 77.84 342.48 72.61 344.92 65.76C347.36 58.92 350.7 50.42 351.99 49.75C353.32 49.03 352.6 56.14 353.04 61.11C353.47 66.12 355.05 68.98 355.73 67.64C356.41 66.3 356.16 60.8 358.17 54.71C360.21 48.63 364.48 42.05 365.81 40.71C367.18 39.37 365.6 43.3 364.74 47.11C363.91 50.91 363.84 54.58 364.63 54.49C365.42 54.35 367.07 50.51 369.87 46.39C372.63 42.23 376.51 37.8 377.15 38.03C377.76 38.29 375.14 43.21 373.74 47.06C372.31 50.91 372.06 53.68 373.85 53.28C375.65 52.88 379.41 49.34 382.61 45.94C385.77 42.54 388.28 39.28 390.86 37.67C393.45 36.01 396.03 36.01 401.2 37.4C406.33 38.79 414.01 41.56 417.38 41.74C420.72 41.92 419.79 39.59 417.74 36.95C415.66 34.36 412.5 31.49 414.05 31.49C415.59 31.49 421.83 34.36 428.19 38.88C434.5 43.44 440.93 49.61 446.85 55.29C452.77 60.97 458.22 66.12 462.75 71.93C467.27 77.75 470.82 84.24 473.91 93.36C476.99 102.49 479.61 114.25 480.94 120.38C482.27 126.51 482.31 127.05 482.63 127.23C482.66 127.23 482.7 127.32 482.59 127.36C481.52 127.76 480.73 128.21 479.83 129.29Z" id="b1edIHHQ1Q"></path><path d="M465.58 135.46C461.06 136.98 455.68 139.53 451.76 141.72C447.85 143.87 445.45 145.66 442.43 146.87C439.45 148.12 435.83 148.79 430.09 150.45C424.31 152.1 416.41 154.74 409.78 158.14C403.17 161.54 397.82 165.74 393.98 168.43C390.18 171.11 387.88 172.28 383.83 173.17C379.77 174.07 373.96 174.65 369.22 175.63C365.27 176.44 362.08 177.51 357.34 179.17C357.09 179.52 356.66 179.84 355.98 180.24C354.51 181.18 351.89 182.65 349.37 184.22C346.86 185.79 344.46 187.49 343.42 188.87C342.34 190.26 342.66 191.33 343.06 192.63C343.42 193.93 343.85 195.45 344.49 196.39C345.18 197.28 346.04 197.6 346.86 198.13C347.69 198.71 348.48 199.56 349.95 202.29C351.38 205.02 353.47 209.67 355.44 213.16C357.38 216.65 359.21 219.02 361.07 220.37C362.98 221.71 364.91 221.98 366.46 222.11C367.28 222.16 368 222.16 368.86 222.96C370.15 222.2 371.55 221.98 373.35 221.53C375.5 220.95 378.19 220.01 380.49 218.09C382.79 216.16 384.65 213.25 385.87 210.75C387.06 208.24 387.56 206.14 387.81 202.34C388.03 198.58 387.95 193.12 388.31 189.5C388.67 185.83 389.46 184.04 390.57 183.1C391.72 182.16 393.23 182.12 395.49 184C397.79 185.88 400.84 189.68 403.75 192.94C406.69 196.21 409.49 198.89 412.54 200.33C415.59 201.76 418.89 201.98 422.48 201.4C426.07 200.86 429.91 199.52 433.17 197.73C436.44 195.94 439.1 193.75 440.85 191.56C442.65 189.36 443.55 187.17 443.76 183.15C443.98 179.08 443.51 173.17 443.19 168.61C442.9 164.04 442.72 160.82 443.76 158.68C444.77 156.48 446.99 155.37 449.83 154.16C452.66 153 456.11 151.7 459.52 150.62C462.75 149.64 465.94 148.79 469.64 148.07C470.07 147.27 470.61 146.37 471.36 144.94C472.29 143.2 473.58 140.74 474.73 138.46C475.88 136.17 476.92 134.16 477.64 132.82C477.78 132.55 477.93 132.28 478.04 132.06C477.57 132.24 477.07 132.42 476.53 132.6C473.8 133.45 470.1 133.94 465.58 135.46Z" id="aePe4Qf9X"></path><path d="M407.84 162.66C411.03 160.51 414.62 158.63 418.53 157.38C422.41 156.13 426.61 155.46 429.44 155.37C432.28 155.23 433.75 155.63 435.11 157.07C436.51 158.5 437.8 160.96 438.84 164.76C439.89 168.52 440.64 173.66 441 177.64C441.32 181.67 441.29 184.53 440.24 187.13C439.2 189.77 437.16 192.09 434.32 194.15C431.49 196.16 427.9 197.82 424.42 198.58C420.97 199.3 417.63 199.12 414.48 197.95C411.32 196.75 408.3 194.6 405.79 191.74C403.32 188.87 401.34 185.29 400.16 182.48C399.01 179.7 398.65 177.6 398.61 175.63C398.58 173.62 398.83 171.69 400.37 169.5C401.88 167.31 404.64 164.85 407.84 162.66Z" id="b3jH9MZMf"></path><path d="M363.69 179.88C365.85 179.17 368.29 178.67 371.3 178.4C374.32 178.09 377.87 178 380.35 178.23C382.82 178.45 384.22 178.99 385.01 181C385.8 183.06 385.98 186.55 386.09 190.62C386.2 194.73 386.2 199.43 385.62 203.32C385.08 207.21 383.97 210.3 382.28 212.72C380.6 215.13 378.34 216.88 375.65 217.91C372.92 218.94 369.76 219.29 367.03 218.94C364.27 218.58 361.94 217.55 359.64 214.77C357.34 212 355.08 207.44 353.65 203.99C352.25 200.5 351.64 198.09 351.35 195.63C351.1 193.17 351.13 190.71 351.67 188.92C352.25 187.17 353.29 186.14 354.4 185.2C355.51 184.31 356.62 183.5 358.13 182.61C359.64 181.67 361.51 180.64 363.69 179.88Z" id="a5FIQW1WkG"></path><path d="M478.47 219.96C478.57 227.66 478.25 234.1 476.1 240.94C473.98 247.79 470.03 255.08 465.73 261.34C461.45 267.61 456.9 272.84 453.67 277.4C450.47 281.92 448.64 285.77 445.13 288.77C441.61 291.81 436.37 293.96 432.89 295.25C429.41 296.51 427.68 296.91 427.93 298.25C428.15 299.59 430.38 301.83 432.42 304.47C434.5 307.06 436.37 310.02 438.31 313.33C440.28 316.64 442.25 320.31 443.47 322.68C444.69 325.05 445.16 326.12 446.31 324.6C447.46 323.03 449.29 318.92 452.09 314.18C454.89 309.43 458.69 304.11 463.32 297.8C467.95 291.5 473.41 284.2 476.85 278.21C480.3 272.26 481.73 267.61 482.45 257.81C483.17 248.01 483.17 232.98 482.66 221.89C482.2 210.79 481.27 203.59 482.2 199.43C483.17 195.27 486.04 194.15 487.69 192.72C489.34 191.24 489.77 189.5 488.62 189.59C487.47 189.68 484.71 191.56 482.59 192.63C480.48 193.75 478.97 194.02 478.43 198.67C477.93 203.32 478.39 212.27 478.47 219.96Z" id="b6GeZlkcfD"></path><path d="M147.91 315.06L148.23 315.12L148.54 315.18L148.86 315.25L149.16 315.34L149.46 315.43L149.76 315.53L150.04 315.64L150.33 315.76L150.61 315.89L150.88 316.03L151.15 316.18L151.41 316.34L151.67 316.51L151.92 316.69L152.17 316.88L152.41 317.07L152.64 317.28L152.87 317.5L153.1 317.72L153.31 317.96L153.53 318.21L153.73 318.46L153.94 318.73L154.13 319L154.32 319.28L154.51 319.58L154.68 319.88L154.86 320.19L155.02 320.51L155.18 320.84L155.34 321.19L155.49 321.54L155.63 321.9L155.77 322.27L155.9 322.64L156.03 323.03L156.15 323.43L156.26 323.84L205.64 509.09L218.67 510.21L218.63 510.54L218.6 510.87L218.56 511.2L218.53 511.53L218.5 511.86L218.47 512.18L218.45 512.5L218.42 512.82L218.4 513.13L218.38 513.44L218.36 513.75L218.34 514.06L218.32 514.36L218.3 514.66L218.29 514.95L218.27 515.25L218.26 515.54L218.25 515.82L218.24 516.11L218.22 516.39L218.21 516.66L218.21 516.93L218.2 517.2L218.19 517.47L218.18 517.73L218.18 517.98L218.17 518.24L218.17 518.49L218.16 518.73L218.16 518.97L218.16 519.21L218.15 519.44L218.15 519.66L218.15 519.89L218.14 520.11L218.14 520.32L218.14 520.53L218.14 520.73L218.13 520.93L218.13 521.12L218.13 521.36L218.12 521.58L218.12 521.8L218.12 522.02L218.11 522.22L218.11 522.42L218.1 522.61L218.1 522.8L218.09 522.98L218.08 523.15L218.07 523.32L218.06 523.48L218.05 523.63L218.03 523.78L218.02 523.93L218 524.07L217.98 524.2L217.96 524.33L217.94 524.46L217.92 524.58L217.89 524.7L217.86 524.81L217.83 524.92L217.79 525.02L217.76 525.13L217.72 525.22L217.68 525.32L217.63 525.41L217.59 525.5L217.53 525.59L217.48 525.67L217.42 525.76L217.36 525.84L217.3 525.92L217.23 525.99L217.16 526.07L217.09 526.14L217.01 526.21L216.93 526.29L216.84 526.36L216.75 526.43L216.65 526.5L216.55 526.57L216.45 526.63L216.34 526.7L216.23 526.77L216.12 526.84L216 526.91L215.89 526.98L215.76 527.05L215.64 527.13L215.51 527.2L215.38 527.27L215.24 527.35L215.11 527.43L214.97 527.5L214.83 527.58L214.68 527.67L214.54 527.75L214.39 527.84L214.25 527.93L214.1 528.02L213.94 528.11L213.79 528.21L213.64 528.31L213.48 528.42L213.33 528.52L213.17 528.63L213.01 528.75L212.86 528.87L212.7 528.99L212.54 529.12L212.38 529.25L212.22 529.38L212.06 529.52L211.91 529.67L211.75 529.81L211.59 529.97L211.43 530.13L211.28 530.29L211.12 530.46L210.96 530.63L210.8 530.81L210.65 530.99L210.49 531.18L210.34 531.38L210.18 531.57L210.03 531.78L209.87 531.98L209.72 532.2L209.57 532.41L209.42 532.63L209.27 532.86L209.11 533.09L208.96 533.32L208.81 533.56L208.66 533.8L208.51 534.04L208.36 534.29L208.21 534.54L208.06 534.8L207.91 535.06L207.76 535.32L207.61 535.58L207.46 535.85L207.31 536.12L207.16 536.39L207.01 536.67L206.86 536.95L206.71 537.23L206.56 537.51L206.41 537.79L206.25 538.08L206.1 538.37L205.95 538.66L205.79 538.95L205.64 539.25L205.49 539.54L205.33 539.84L205.17 540.14L205.02 540.44L204.86 540.74L204.7 541.05L204.54 541.35L204.37 541.66L204.21 541.97L204.05 542.27L203.89 542.58L203.73 542.89L203.57 543.2L203.41 543.51L203.25 543.82L203.09 544.13L202.93 544.44L202.77 544.75L202.61 545.06L202.46 545.37L202.3 545.68L202.15 545.98L201.99 546.29L201.84 546.6L201.69 546.91L201.54 547.21L201.39 547.52L201.25 547.82L201.1 548.13L200.96 548.43L200.82 548.73L200.68 549.03L200.55 549.33L200.41 549.62L200.28 549.92L200.15 550.21L200.03 550.5L199.9 550.79L199.78 551.08L199.66 551.37L199.55 551.65L199.43 551.93L199.32 552.21L199.22 552.49L199.11 552.77L199.01 553.05L198.91 553.32L198.81 553.6L198.72 553.87L198.62 554.13L198.54 554.4L198.45 554.66L198.37 554.93L198.29 555.19L198.21 555.44L198.13 555.7L198.06 555.96L197.99 556.21L197.92 556.46L197.85 556.71L197.78 556.95L197.72 557.2L197.66 557.44L197.6 557.68L197.54 557.92L197.49 558.16L197.44 558.4L197.38 558.63L197.33 558.87L197.29 559.1L197.24 559.33L197.19 559.56L197.15 559.78L197.11 560.01L197.07 560.23L197.03 560.45L196.99 560.67L196.95 560.89L196.91 561.11L196.88 561.33L196.84 561.54L196.81 561.75L196.78 561.97L196.74 562.17L196.71 562.38L196.68 562.59L196.65 562.79L196.62 562.99L196.6 563.19L196.57 563.39L196.54 563.59L196.52 563.79L196.49 563.98L196.47 564.18L196.45 564.37L196.42 564.56L196.4 564.75L196.39 564.93L196.37 565.12L196.35 565.3L196.33 565.48L196.32 565.66L196.31 565.83L196.29 566L196.28 566.17L196.27 566.34L196.27 566.5L196.26 566.67L196.25 566.83L196.25 566.98L196.25 567.14L196.25 567.29L196.25 567.43L196.25 567.58L196.25 567.72L196.26 567.86L196.27 567.99L196.27 568.12L196.29 568.25L196.3 568.37L196.31 568.49L196.33 568.61L196.35 568.72L196.37 568.83L196.39 568.94L196.41 569.04L196.43 569.14L196.46 569.23L196.49 569.33L196.51 569.42L196.54 569.5L196.57 569.59L196.61 569.67L196.64 569.75L196.67 569.83L196.71 569.91L196.74 569.99L196.78 570.06L196.82 570.13L196.86 570.21L196.89 570.28L196.93 570.35L196.97 570.42L197.01 570.49L197.06 570.56L197.1 570.63L197.14 570.7L197.18 570.77L197.22 570.84L197.27 570.92L197.31 570.99L197.35 571.06L197.4 571.14L197.44 571.21L197.48 571.29L197.52 571.37L197.57 571.45L197.61 571.53L197.65 571.62L197.69 571.71L197.74 571.8L197.78 571.89L197.82 571.99L197.85 572.09L197.89 572.19L197.93 572.3L197.96 572.41L198 572.53L198.04 572.64L198.07 572.76L198.11 572.88L198.14 573L198.18 573.13L198.22 573.25L198.25 573.38L198.29 573.51L198.33 573.64L198.37 573.77L198.41 573.9L198.45 574.03L198.49 574.16L198.54 574.3L198.58 574.43L198.63 574.56L198.68 574.7L198.73 574.83L198.78 574.96L198.84 575.1L198.9 575.23L198.95 575.36L199.02 575.49L199.08 575.62L199.14 575.74L199.21 575.87L199.29 575.99L199.36 576.11L199.44 576.23L199.52 576.35L199.6 576.47L199.69 576.58L199.78 576.69L199.87 576.8L199.97 576.91L200.07 577.01L200.18 577.1L200.29 577.2L200.41 577.29L200.53 577.37L200.65 577.46L200.77 577.54L200.9 577.61L201.03 577.69L201.16 577.76L201.29 577.82L201.43 577.88L201.57 577.94L201.71 577.99L201.85 578.03L201.99 578.07L202.14 578.11L202.29 578.14L202.43 578.17L202.58 578.19L202.73 578.2L202.88 578.21L203.03 578.22L203.19 578.21L203.34 578.2L203.49 578.19L203.64 578.17L203.79 578.14L203.95 578.1L204.1 578.06L204.25 578.01L204.4 577.95L204.55 577.89L204.7 577.82L204.85 577.74L205 577.65L205.14 577.56L205.29 577.45L205.43 577.34L205.57 577.22L205.71 577.1L205.85 576.96L205.98 576.82L206.11 576.67L206.24 576.52L206.37 576.35L206.5 576.19L206.63 576.01L206.75 575.83L206.87 575.64L206.99 575.44L207.11 575.24L207.22 575.04L207.34 574.83L207.45 574.61L207.56 574.4L207.67 574.17L207.78 573.94L207.88 573.71L207.99 573.48L208.09 573.24L208.19 573L208.29 572.76L208.39 572.52L208.48 572.27L208.58 572.02L208.67 571.77L208.76 571.52L208.85 571.27L208.94 571.01L209.02 570.76L209.11 570.5L209.19 570.25L209.27 570L209.35 569.74L209.43 569.49L209.51 569.24L209.58 568.99L209.66 568.74L209.73 568.5L209.8 568.25L209.87 568.01L209.94 567.77L210 567.54L210.07 567.3L210.13 567.07L210.19 566.84L210.25 566.62L210.31 566.4L210.38 566.18L210.44 565.96L210.49 565.74L210.55 565.53L210.61 565.33L210.67 565.12L210.73 564.92L210.79 564.72L210.85 564.53L210.91 564.33L210.97 564.15L211.03 563.96L211.09 563.78L211.16 563.6L211.22 563.43L211.28 563.26L211.35 563.1L211.41 562.93L211.48 562.78L211.55 562.62L211.62 562.47L211.69 562.32L211.77 562.18L211.84 562.05L211.92 561.91L212 561.78L212.08 561.66L212.16 561.54L212.25 561.42L212.33 561.31L212.42 561.21L212.51 561.1L212.61 561.01L212.7 560.92L212.8 560.83L212.9 560.75L213 560.67L213.1 560.6L213.21 560.53L213.32 560.47L213.43 560.41L213.55 560.36L213.67 560.32L213.79 560.28L213.91 560.24L214.04 560.21L214.17 560.18L214.3 560.16L214.43 560.15L214.57 560.14L214.71 560.14L214.86 560.14L215 560.15L215.15 560.16L215.31 560.18L215.46 560.2L215.63 560.23L215.79 560.27L215.96 560.31L216.13 560.35L216.3 560.41L216.48 560.46L216.66 560.53L216.84 560.6L217.03 560.67L217.22 560.75L217.42 560.84L217.62 560.94L217.82 561.03L218.03 561.14L218.24 561.25L218.45 561.37L218.67 561.49L218.88 561.62L219.11 561.75L219.33 561.89L219.56 562.04L219.79 562.19L220.03 562.35L220.27 562.51L220.51 562.67L220.75 562.84L221 563.01L221.25 563.19L221.5 563.37L221.75 563.56L222.01 563.75L222.27 563.94L222.53 564.13L222.79 564.33L223.06 564.53L223.32 564.74L223.59 564.94L223.86 565.15L224.13 565.36L224.4 565.57L224.67 565.79L224.95 566L225.22 566.22L225.5 566.44L225.78 566.65L226.06 566.87L226.33 567.09L226.61 567.31L226.89 567.54L227.17 567.76L227.45 567.98L227.73 568.2L228.01 568.42L228.29 568.64L228.57 568.86L228.86 569.07L229.14 569.29L229.42 569.51L229.7 569.72L229.99 569.94L230.27 570.15L230.55 570.36L230.83 570.57L231.12 570.78L231.4 570.99L231.68 571.2L231.97 571.41L232.25 571.61L232.54 571.82L232.82 572.02L233.11 572.23L233.39 572.43L233.68 572.63L233.97 572.83L234.26 573.03L234.55 573.22L234.84 573.42L235.13 573.62L235.42 573.81L235.71 574L236 574.19L236.3 574.38L236.59 574.57L236.89 574.76L237.19 574.95L237.49 575.13L237.79 575.31L238.09 575.5L238.39 575.68L238.7 575.85L239 576.03L239.31 576.21L239.62 576.38L239.93 576.56L240.24 576.73L240.55 576.9L240.86 577.08L241.17 577.25L241.49 577.42L241.81 577.59L242.12 577.75L242.44 577.92L242.77 578.09L243.09 578.25L243.41 578.42L243.74 578.58L244.06 578.75L244.39 578.91L244.72 579.08L245.05 579.24L245.38 579.4L245.71 579.57L246.04 579.73L246.37 579.89L246.7 580.06L247.04 580.22L247.37 580.38L247.7 580.55L248.04 580.71L248.37 580.88L248.71 581.04L249.05 581.21L249.38 581.38L249.72 581.55L250.05 581.72L250.39 581.89L250.73 582.06L251.06 582.23L251.4 582.41L251.73 582.58L252.07 582.76L252.41 582.94L252.74 583.12L253.07 583.3L253.41 583.48L253.74 583.67L254.07 583.86L254.4 584.05L254.73 584.24L255.06 584.43L255.39 584.62L255.72 584.82L256.05 585.02L256.38 585.22L256.71 585.41L257.04 585.62L257.37 585.82L257.7 586.02L258.03 586.22L258.37 586.43L258.7 586.63L259.03 586.84L259.37 587.04L259.71 587.25L260.04 587.45L260.38 587.66L260.72 587.87L261.07 588.07L261.41 588.28L261.75 588.49L262.1 588.69L262.45 588.9L262.8 589.1L263.15 589.31L263.51 589.51L263.86 589.71L264.22 589.92L264.59 590.12L264.95 590.32L265.32 590.52L265.68 590.71L266.06 590.91L266.43 591.11L266.81 591.3L267.19 591.49L267.58 591.68L267.97 591.87L268.36 592.06L268.75 592.24L269.15 592.43L269.55 592.61L269.95 592.79L270.35 592.97L270.75 593.15L271.16 593.32L271.57 593.5L271.97 593.67L272.38 593.83L272.79 594L273.2 594.16L273.61 594.32L274.02 594.48L274.43 594.63L274.85 594.79L275.26 594.94L275.67 595.08L276.08 595.23L276.48 595.37L276.89 595.5L277.3 595.63L277.71 595.76L278.11 595.89L278.51 596.01L278.91 596.13L279.31 596.25L279.71 596.36L280.1 596.47L280.5 596.57L280.89 596.67L281.27 596.76L281.66 596.85L282.04 596.94L282.42 597.02L282.79 597.1L283.16 597.17L283.26 597.19L283.36 597.21L283.47 597.23L283.57 597.25L283.67 597.27L283.77 597.29L283.87 597.3L283.97 597.32L284.07 597.34L284.18 597.35L284.28 597.37L284.38 597.38L284.48 597.4L284.58 597.41L284.68 597.43L284.78 597.44L284.87 597.45L284.97 597.47L285.07 597.48L285.17 597.49L285.27 597.5L285.37 597.52L285.46 597.53L285.56 597.54L285.66 597.55L285.75 597.56L285.85 597.57L285.95 597.59L286.04 597.6L286.14 597.61L286.23 597.62L286.33 597.63L286.42 597.64L286.52 597.65L286.61 597.66L286.7 597.67L286.89 597.69L286.98 597.7L287.07 597.71L278.71 604.78L278.18 605.18L277.58 605.56L276.9 605.91L276.15 606.23L275.34 606.53L274.46 606.81L273.53 607.06L272.54 607.29L271.5 607.5L270.41 607.69L269.28 607.86L268.11 608.01L266.91 608.15L265.67 608.27L264.41 608.37L263.13 608.45L261.82 608.52L260.5 608.58L259.16 608.63L257.82 608.66L256.48 608.68L255.13 608.69L253.79 608.69L252.45 608.68L251.13 608.67L249.82 608.65L248.53 608.62L247.26 608.58L246.02 608.54L244.81 608.5L243.63 608.46L242.49 608.41L241.39 608.36L240.34 608.31L239.34 608.26L238.39 608.21L237.5 608.16L236.67 608.12L235.91 608.08L235.21 608.04L77.59 594.8L77.15 594.76L76.73 594.71L76.31 594.66L75.9 594.59L75.5 594.51L75.11 594.43L74.73 594.34L74.36 594.23L74 594.12L73.65 593.99L73.31 593.86L72.97 593.71L72.64 593.55L72.33 593.39L72.02 593.2L71.72 593.01L71.43 592.8L71.14 592.58L70.87 592.35L70.6 592.1L70.34 591.84L70.09 591.56L69.85 591.27L69.62 590.97L69.39 590.65L69.17 590.31L68.96 589.96L68.76 589.59L68.56 589.21L68.38 588.81L68.2 588.39L68.02 587.95L67.86 587.5L67.7 587.03L67.55 586.54L67.4 586.03L67.27 585.5L67.14 584.95L67.01 584.38L66.9 583.8L66.72 582.87L66.56 581.99L66.42 581.16L66.29 580.38L66.18 579.64L66.09 578.95L66.02 578.29L65.96 577.67L65.92 577.09L65.9 576.55L65.9 576.04L65.91 575.56L65.95 575.11L66 574.68L66.07 574.28L66.16 573.91L66.26 573.56L66.39 573.22L66.53 572.91L66.69 572.61L66.88 572.33L67.08 572.06L67.29 571.8L67.53 571.55L67.79 571.3L68.07 571.06L68.36 570.83L68.68 570.59L69.01 570.36L69.36 570.12L69.74 569.88L70.13 569.63L70.54 569.37L70.98 569.11L71.43 568.83L71.9 568.54L72.4 568.23L72.91 567.91L73.45 567.56L74 567.2L73.89 567.05L73.77 566.89L73.65 566.74L73.53 566.58L73.4 566.42L73.28 566.27L73.15 566.11L73.02 565.95L72.89 565.79L72.62 565.46L72.48 565.3L72.35 565.13L72.21 564.97L72.07 564.8L71.94 564.62L71.8 564.45L71.66 564.27L71.52 564.09L71.39 563.91L71.25 563.73L71.12 563.54L70.98 563.35L70.85 563.16L70.72 562.96L70.58 562.76L70.46 562.56L70.33 562.35L70.2 562.14L70.08 561.93L69.96 561.71L69.84 561.49L69.73 561.26L69.62 561.03L69.51 560.8L69.4 560.56L69.3 560.31L69.2 560.06L69.1 559.81L69.01 559.55L11.81 330.51L11.69 329.99L11.59 329.48L11.51 328.99L11.44 328.5L11.39 328.02L11.34 327.56L11.32 327.1L11.31 326.65L11.31 326.21L11.33 325.79L11.36 325.37L11.4 324.97L11.46 324.57L11.53 324.19L11.62 323.82L11.72 323.46L11.83 323.11L11.96 322.77L12.1 322.44L12.26 322.13L12.42 321.83L12.61 321.54L12.8 321.26L13.01 320.99L13.23 320.74L13.46 320.5L13.71 320.27L13.97 320.05L14.25 319.85L14.53 319.66L14.83 319.48L15.14 319.32L15.47 319.17L15.81 319.04L16.15 318.91L16.52 318.81L16.89 318.71L17.28 318.63L17.68 318.57L18.09 318.52L147.25 314.98L147.58 315.02L147.91 315.06Z" id="b5s6Aqlzt"></path><path d="M153.53 332.97C155.29 332.88 154.93 332.52 155.47 334.58C159.72 350.03 193.71 473.64 197.96 489.09C198.46 490.88 198.79 490.75 197.49 491.33C185.76 496.55 91.84 538.27 80.1 543.49C78.31 544.25 78.67 544.52 78.09 542.33C72.9 522.42 31.39 363.2 26.2 343.3C25.7 341.33 25.77 339.45 27.78 339.68C52.93 338.33 140.96 333.64 153.53 332.97Z" id="b2qiKk8Lp"></path><path d="M173.59 501.93C175.98 500.87 195.1 492.39 197.49 491.33C198.79 490.75 198.46 490.88 197.96 489.09C193.71 473.64 159.72 350.03 155.47 334.58C154.93 332.52 155.29 332.88 153.53 332.97C148.36 333.24 122.51 334.61 75.98 337.08C116.39 414.98 148.93 469.93 173.59 501.93Z" id="c1HlcGQIrN"></path><path d="M153.53 332.97C155.29 332.88 154.93 332.52 155.47 334.58C159.72 350.03 193.71 473.64 197.96 489.09C198.46 490.88 198.79 490.75 197.49 491.33C195.1 492.39 175.98 500.87 173.59 501.93C177.58 507.08 181.6 512.13 185.72 517.1C187.05 516.56 193.69 513.89 205.64 509.09C176.01 397.94 159.55 336.19 156.26 323.84C154.79 318.34 151.7 315.38 147.25 314.98C139.18 315.2 74.64 316.95 66.57 317.17C69.7 323.88 72.82 330.51 75.98 337.08C91.49 336.26 145.78 333.38 153.53 332.97Z" id="b1E22GxuEj"></path><path d="M273.08 597.58C279.75 598.96 279.03 601.15 275.95 603.03C273.11 604.73 268.19 606.12 265.25 606.21C246.64 604.8 97.75 593.57 79.13 592.16C66.47 591.22 66.9 575.43 70.34 574.22C110.89 578.89 252.8 595.24 273.08 597.58Z" id="b22TZrrjnC"></path><path d="M15.18 325.49C15.83 325.23 16.54 325.67 16.76 326.52C22.81 350.22 71.25 539.83 77.3 563.53C77.52 564.34 77.12 565.23 76.48 565.5C75.8 565.77 75.11 565.32 74.9 564.47C70.86 548.67 50.68 469.67 14.36 327.46C14.48 326.33 14.75 325.67 15.18 325.49Z" id="a2I8cP1xR3"></path><path d="M106.73 563.71C106.48 562.91 106.8 561.97 107.45 561.65C115.11 557.81 176.35 527.03 184 523.18C184.65 522.87 185.36 523.27 185.65 524.08C185.9 524.88 185.58 525.78 184.93 526.09C179.83 528.65 154.31 541.48 108.38 564.56C107.45 564.53 106.9 564.25 106.73 563.71Z" id="a4MKhsInP"></path><path d="M92.48 560.85C92.38 560.45 92.52 560 92.84 559.86C94.09 559.29 104.08 554.67 105.33 554.09C105.66 553.96 106.01 554.14 106.12 554.54C106.27 554.94 106.09 555.39 105.76 555.57C104.93 555.95 100.78 557.88 93.31 561.34C92.83 561.31 92.56 561.15 92.48 560.85Z" id="h2WtcwqfBc"></path><path d="M300.42 580.08C293.71 579.64 286.64 580.62 273.26 576.01C259.83 571.45 240.06 561.3 228.54 555.66C217.02 550.02 213.79 548.95 211.2 551.86C208.62 554.76 206.72 561.65 205.1 565.86C203.49 570.06 202.16 571.54 200.83 571.85C199.93 572.08 199.04 571.72 197.42 571.23C197.57 571.45 197.67 571.72 197.82 571.99C198.32 573.33 198.64 575.52 199.97 576.91C201.33 578.25 203.7 578.88 205.57 577.22C207.44 575.61 208.76 571.76 209.73 568.5C210.67 565.23 211.2 562.59 212.42 561.21C213.61 559.82 215.4 559.73 218.24 561.25C221.04 562.77 224.84 565.95 228.57 568.86C232.34 571.76 236.07 574.45 240.24 576.73C244.36 579.06 248.96 581.02 253.41 583.48C257.82 585.94 262.09 588.94 267.19 591.49C272.32 594.04 278.24 596.23 283.16 597.17C288.04 598.11 291.92 597.84 294.14 597.67C299.13 597.22 312.27 611 320.56 614.04C320.27 613.28 319.98 612.92 319.62 612.38C318.47 610.64 316.97 607.42 315.53 602.81C314.06 598.16 312.66 592.16 312.48 586.03C312.48 585.88 312.48 585.12 312.48 583.75C307.24 581.49 303.22 580.26 300.42 580.08Z" id="b37TAOJ7Fn"></path><path d="M318.51 505.91C315.68 505.51 312.05 503.68 309.18 504.75C306.27 505.82 304.12 509.85 301.57 512.22C299.06 514.64 296.15 515.4 292.99 515.08C289.84 514.77 286.39 513.34 282.66 513.03C278.96 512.71 274.94 513.47 272.29 512.89C269.63 512.27 268.3 510.3 267.62 507.52C267.19 505.73 267.01 503.63 266.69 502.2C266.22 500.1 266.04 500.54 265.32 502.02C264.82 503.09 264.25 504.84 264.1 506.58C263.92 508.37 264.18 510.21 264.79 512.09C265.4 514.01 266.4 515.98 268.48 517.19C270.6 518.44 273.79 518.93 276.56 518.62C279.28 518.26 281.62 517.1 284.13 517.68C286.64 518.26 289.33 520.54 292.64 521.17C295.9 521.84 299.74 520.85 302.9 519.02C305.27 517.63 309.07 515.71 310.29 512.58C310.58 511.91 310.72 511.42 310.9 511.77C310.97 511.86 311.05 512.09 311.15 512.31C311.58 513.34 311.87 514.05 312.52 514.64C313.31 515.35 314.67 515.71 316.21 515.22C317.72 514.73 319.37 513.38 320.88 511.73C322.35 510.07 323.68 508.1 324.76 505.87C324.86 505.69 324.97 505.47 325.04 505.24C322.64 505.6 320.81 506.23 318.51 505.91Z" id="b1bY6hf0Ip"></path><path d="M302.36 544.56L302.21 544.49L302.07 544.41L301.92 544.33L301.78 544.25L301.63 544.17L301.49 544.09L301.35 544.01L301.21 543.93L301.08 543.85L300.94 543.77L300.8 543.68L300.67 543.6L300.53 543.52L300.4 543.43L300.27 543.35L300.14 543.26L300.01 543.17L299.88 543.09L299.75 543L299.62 542.91L299.49 542.82L299.13 542.55L298.77 542.28L298.41 542L298.05 541.71L297.68 541.42L297.31 541.11L296.93 540.8L296.55 540.49L296.16 540.17L295.77 539.84L295.36 539.51L294.94 539.17L294.52 538.83L294.08 538.48L293.63 538.13L293.16 537.77L292.68 537.41L292.18 537.05L291.67 536.68L291.14 536.31L290.59 535.93L290.02 535.56L289.42 535.18L288.82 534.81L288.2 534.43L287.56 534.05L286.92 533.67L286.27 533.29L285.62 532.91L284.97 532.53L284.31 532.15L283.65 531.78L283 531.4L282.36 531.03L281.72 530.67L281.09 530.3L280.48 529.95L279.88 529.59L279.3 529.24L278.73 528.9L278.19 528.57L277.67 528.24L277.37 528.04L277.07 527.86L276.79 527.67L276.51 527.48L276.24 527.3L275.97 527.12L275.72 526.94L275.47 526.76L275.23 526.59L274.99 526.41L274.76 526.24L274.54 526.07L274.32 525.91L274.11 525.74L273.9 525.58L273.7 525.42L273.5 525.26L273.31 525.11L273.12 524.96L272.93 524.81L272.75 524.66L319.55 528.46L302.36 544.56Z" id="c58xMCdgLQ"></path><path d="M385.75 213.49L385.92 214.42L386.09 215.35L386.27 216.27L386.45 217.2L386.64 218.13L386.82 219.06L387.01 219.99L387.2 220.92L387.4 221.85L387.6 222.78L387.79 223.71L388 224.63L388.2 225.56L388.41 226.48L388.62 227.41L388.83 228.33L389.05 229.25L389.26 230.16L389.49 231.08L389.71 231.99L389.94 232.9L390.16 233.81L390.4 234.71L390.63 235.61L390.87 236.51L391.11 237.4L391.35 238.29L391.59 239.17L391.84 240.05L392.09 240.93L392.35 241.8L392.6 242.66L392.86 243.53L393.12 244.38L393.39 245.23L393.66 246.07L393.93 246.91L394.2 247.74L394.61 248.98L395.03 250.21L395.45 251.41L395.88 252.61L396.32 253.79L396.75 254.95L397.2 256.1L397.64 257.24L398.09 258.36L398.54 259.47L398.99 260.56L399.45 261.63L399.9 262.69L400.36 263.74L400.82 264.77L401.28 265.78L401.74 266.78L402.2 267.76L402.65 268.73L403.11 269.68L403.56 270.62L404.01 271.54L404.46 272.44L404.91 273.33L405.35 274.2L405.79 275.06L406.23 275.89L406.66 276.72L407.08 277.52L407.5 278.31L407.92 279.09L408.33 279.84L408.73 280.58L409.12 281.3L409.51 282.01L409.89 282.7L410.26 283.37L410.62 284.02L410.97 284.66L411.32 285.28L411.65 285.88L411.98 286.46L412.29 287.02L412.6 287.57L412.9 288.1L413.19 288.62L413.47 289.13L413.74 289.61L414 290.09L414.26 290.55L414.51 291L414.76 291.43L414.99 291.85L415.22 292.26L415.45 292.66L415.66 293.05L415.88 293.42L416.08 293.79L416.28 294.15L416.48 294.49L416.67 294.83L416.86 295.16L417.05 295.48L417.23 295.79L417.4 296.1L417.57 296.4L417.74 296.69L417.91 296.98L418.08 297.26L418.24 297.53L418.4 297.8L418.56 298.07L418.71 298.33L418.87 298.59L419.02 298.84L419.18 299.1L419.33 299.35L419.48 299.59L419.63 299.84L419.79 300.09L419.82 300.17L419.64 300.22L419.61 300.18L419.57 300.14L419.53 300.1L419.48 300.06L419.43 300.03L419.38 300L419.32 299.97L419.26 299.94L419.19 299.92L419.12 299.89L419.05 299.87L418.97 299.85L418.9 299.83L418.81 299.81L418.73 299.79L418.64 299.77L418.55 299.76L418.46 299.74L418.36 299.73L418.26 299.72L418.16 299.7L418.06 299.69L417.95 299.68L417.85 299.67L417.74 299.65L417.63 299.64L417.51 299.63L417.4 299.62L417.28 299.6L417.16 299.59L417.04 299.58L416.92 299.56L416.8 299.55L416.67 299.53L416.55 299.51L416.42 299.5L416.3 299.48L416.17 299.46L416.04 299.44L415.91 299.41L415.73 299.38L415.56 299.35L415.38 299.31L415.2 299.27L415.02 299.23L414.83 299.18L414.65 299.14L414.47 299.09L414.29 299.03L414.11 298.97L413.93 298.91L413.75 298.85L413.57 298.78L413.39 298.71L413.21 298.64L413.03 298.56L412.85 298.48L412.67 298.39L412.49 298.3L412.31 298.21L412.14 298.11L411.96 298.01L411.79 297.9L411.62 297.79L411.45 297.68L411.28 297.56L411.11 297.43L410.94 297.31L410.78 297.17L410.61 297.04L410.45 296.89L410.29 296.75L410.13 296.6L409.98 296.44L409.82 296.28L409.67 296.11L409.52 295.94L409.38 295.76L409.23 295.58L409.09 295.39L408.95 295.19L408.82 294.99L408.69 294.79L408.55 294.58L408.43 294.36L408.3 294.15L408.18 293.92L408.05 293.69L407.93 293.46L407.82 293.23L407.7 292.99L407.58 292.75L407.47 292.5L407.36 292.25L407.25 292L407.14 291.75L407.03 291.49L406.92 291.23L406.81 290.97L406.7 290.71L406.6 290.45L406.49 290.19L406.38 289.92L406.28 289.66L406.17 289.39L406.06 289.13L405.96 288.86L405.85 288.6L405.74 288.33L405.64 288.07L405.53 287.8L405.42 287.54L405.31 287.28L405.2 287.02L405.08 286.76L404.97 286.5L404.85 286.25L404.74 286L404.62 285.75L404.5 285.5L404.38 285.26L404.25 285.02L404.13 284.79L404 284.55L403.87 284.32L403.73 284.09L403.6 283.86L403.46 283.63L403.31 283.41L403.17 283.18L403.02 282.95L402.87 282.72L402.71 282.49L402.56 282.26L402.39 282.02L402.23 281.79L402.06 281.55L401.89 281.31L401.71 281.07L401.53 280.83L401.34 280.58L401.16 280.33L400.96 280.07L400.76 279.81L400.56 279.55L400.35 279.28L400.14 279L399.92 278.72L399.7 278.43L399.47 278.14L399.24 277.84L399 277.54L398.76 277.22L398.51 276.9L398.25 276.58L397.99 276.24L397.73 275.9L397.45 275.54L397.18 275.18L396.89 274.81L396.6 274.43L396.3 274.05L396 273.65L395.69 273.24L395.38 272.83L395.06 272.41L394.73 271.97L394.4 271.53L394.07 271.08L393.73 270.62L393.39 270.15L393.05 269.68L392.7 269.19L392.35 268.7L391.99 268.19L391.63 267.68L391.27 267.16L390.91 266.63L390.55 266.1L390.18 265.55L389.81 265L389.44 264.44L389.07 263.88L388.7 263.3L388.33 262.72L387.95 262.13L387.58 261.53L387.21 260.92L386.84 260.31L386.46 259.69L386.09 259.07L385.72 258.43L385.35 257.79L384.99 257.14L384.62 256.49L384.26 255.83L383.89 255.16L383.53 254.48L383.18 253.8L382.82 253.11L382.47 252.42L382.12 251.72L381.78 251.01L381.44 250.3L381.1 249.59L380.76 248.87L380.43 248.15L380.1 247.43L379.78 246.71L379.45 245.99L379.14 245.27L378.82 244.54L378.51 243.83L378.2 243.11L377.9 242.39L377.6 241.68L377.3 240.98L377.01 240.28L376.72 239.58L376.44 238.89L376.16 238.21L375.88 237.54L375.61 236.87L375.34 236.22L375.08 235.57L374.82 234.93L374.57 234.31L374.32 233.7L374.07 233.1L373.83 232.51L373.6 231.94L373.37 231.38L373.14 230.84L372.92 230.31L372.7 229.8L372.49 229.31L372.29 228.83L372.08 228.38L371.89 227.94L371.7 227.52L371.61 227.34L371.53 227.15L371.44 226.97L371.36 226.8L371.28 226.63L371.2 226.46L371.12 226.3L371.04 226.14L370.96 225.99L370.88 225.84L370.8 225.69L370.73 225.55L370.65 225.41L370.58 225.28L370.51 225.15L370.43 225.02L370.36 224.9L370.29 224.78L370.22 224.67L370.15 224.55L370.08 224.45L370.01 224.34L369.95 224.24L369.88 224.14L369.81 224.05L369.75 223.96L369.68 223.87L369.62 223.78L369.55 223.7L369.49 223.62L369.43 223.54L369.37 223.47L369.31 223.39L369.25 223.32L369.19 223.26L369.13 223.19L369.07 223.13L369.01 223.07L368.95 223.02L368.9 222.96L369 222.91L369.09 222.85L369.19 222.8L369.29 222.75L369.39 222.7L369.49 222.65L369.58 222.61L369.68 222.56L369.79 222.52L369.89 222.48L369.99 222.44L370.09 222.4L370.19 222.36L370.3 222.33L370.4 222.29L370.51 222.26L370.61 222.22L370.72 222.19L370.83 222.16L370.93 222.13L371.04 222.1L371.15 222.07L371.27 222.04L371.38 222.01L371.49 221.98L371.61 221.95L371.72 221.92L371.84 221.89L371.96 221.86L372.08 221.84L372.2 221.81L372.32 221.78L372.44 221.75L372.57 221.72L372.69 221.69L372.82 221.66L372.95 221.63L373.08 221.6L373.21 221.56L373.35 221.53L373.51 221.49L373.68 221.44L373.84 221.39L374.01 221.34L374.18 221.29L374.35 221.24L374.52 221.19L374.7 221.13L374.87 221.08L375.05 221.02L375.23 220.96L375.41 220.89L375.59 220.83L375.77 220.76L375.95 220.69L376.13 220.62L376.31 220.55L376.5 220.47L376.68 220.39L376.87 220.31L377.05 220.23L377.23 220.14L377.42 220.05L377.6 219.96L377.79 219.87L377.97 219.77L378.16 219.67L378.34 219.57L378.53 219.46L378.71 219.35L378.89 219.24L379.07 219.13L379.25 219.01L379.43 218.89L379.61 218.76L379.79 218.63L379.97 218.5L380.14 218.37L380.32 218.23L380.49 218.09L380.64 217.96L380.79 217.82L380.94 217.69L381.08 217.55L381.23 217.41L381.37 217.27L381.52 217.13L381.66 216.98L381.8 216.83L381.94 216.68L382.08 216.53L382.21 216.38L382.35 216.22L382.48 216.06L382.62 215.9L382.75 215.74L382.88 215.58L383.01 215.41L383.13 215.25L383.26 215.08L383.38 214.91L383.5 214.75L383.62 214.58L383.74 214.41L383.86 214.24L383.98 214.06L384.09 213.89L384.2 213.72L384.31 213.55L384.42 213.37L384.53 213.2L384.63 213.03L384.74 212.85L384.84 212.68L384.94 212.51L385.04 212.33L385.13 212.16L385.23 211.99L385.32 211.81L385.41 211.64L385.57 212.57L385.75 213.49Z" id="b3r2iv9Z8"></path></defs><g><g><g><use xlink:href="#g18uv3Yas" opacity="1" fill="#e6e6e6" fill-opacity="1"></use><g><use xlink:href="#g18uv3Yas" opacity="1" fill-opacity="0" stroke="#000000" stroke-width="1" stroke-opacity="0"></use></g></g><g><use xlink:href="#b2mVGA0Sn6" opacity="1" fill="#cccccc" fill-opacity="1"></use><g><use xlink:href="#b2mVGA0Sn6" opacity="1" fill-opacity="0" stroke="#000000" stroke-width="1" stroke-opacity="0"></use></g></g><g><use xlink:href="#alns2Dudr" opacity="1" fill="#141313" fill-opacity="1"></use><g><use xlink:href="#alns2Dudr" opacity="1" fill-opacity="0" stroke="#000000" stroke-width="1" stroke-opacity="0"></use></g></g><g><use xlink:href="#bzzUE6Rlb" opacity="1" fill="#0d0d0d" fill-opacity="1"></use><g><use xlink:href="#bzzUE6Rlb" opacity="1" fill-opacity="0" stroke="#000000" stroke-width="1" stroke-opacity="0"></use></g></g><g><use xlink:href="#aelqzOTLl" opacity="1" fill="#ffffff" fill-opacity="1"></use><g><use xlink:href="#aelqzOTLl" opacity="1" fill-opacity="0" stroke="#000000" stroke-width="1" stroke-opacity="0"></use></g></g><g><use xlink:href="#iWuBVZvbs" opacity="1" fill="#7c0015" fill-opacity="1"></use><g><use xlink:href="#iWuBVZvbs" opacity="1" fill-opacity="0" stroke="#000000" stroke-width="1" stroke-opacity="0"></use></g></g><g><use xlink:href="#a6Xsm3g8OV" opacity="1" fill="#d61b2e" fill-opacity="1"></use><g><use xlink:href="#a6Xsm3g8OV" opacity="1" fill-opacity="0" stroke="#000000" stroke-width="1" stroke-opacity="0"></use></g></g><g><use xlink:href="#f46nG1barK" opacity="1" fill="#ffffff" fill-opacity="1"></use><g><use xlink:href="#f46nG1barK" opacity="1" fill-opacity="0" stroke="#000000" stroke-width="1" stroke-opacity="0"></use></g></g><g><use xlink:href="#a1rdP4USo" opacity="1" fill="#000000" fill-opacity="0"></use><g><use xlink:href="#a1rdP4USo" opacity="1" fill-opacity="0" stroke="#000000" stroke-width="1" stroke-opacity="0"></use></g></g><g><use xlink:href="#a1kvuWD9FX" opacity="1" fill="#ffffff" fill-opacity="1"></use><g><use xlink:href="#a1kvuWD9FX" opacity="1" fill-opacity="0" stroke="#000000" stroke-width="1" stroke-opacity="0"></use></g></g><g><use xlink:href="#c2KG4YX1C4" opacity="1" fill="#f6d5b8" fill-opacity="1"></use><g><use xlink:href="#c2KG4YX1C4" opacity="1" fill-opacity="0" stroke="#000000" stroke-width="1" stroke-opacity="0"></use></g></g><g><use xlink:href="#aWPBBnyl" opacity="1" fill="#f6d5b8" fill-opacity="1"></use><g><use xlink:href="#aWPBBnyl" opacity="1" fill-opacity="0" stroke="#000000" stroke-width="1" stroke-opacity="0"></use></g></g><g><use xlink:href="#b1edIHHQ1Q" opacity="1" fill="#785742" fill-opacity="1"></use><g><use xlink:href="#b1edIHHQ1Q" opacity="1" fill-opacity="0" stroke="#000000" stroke-width="1" stroke-opacity="0"></use></g></g><g><use xlink:href="#aePe4Qf9X" opacity="1" fill="#333333" fill-opacity="1"></use><g><use xlink:href="#aePe4Qf9X" opacity="1" fill-opacity="0" stroke="#000000" stroke-width="1" stroke-opacity="0"></use></g></g><g><use xlink:href="#b3jH9MZMf" opacity="1" fill="#e6e6e6" fill-opacity="1"></use><g><use xlink:href="#b3jH9MZMf" opacity="1" fill-opacity="0" stroke="#000000" stroke-width="1" stroke-opacity="0"></use></g></g><g><use xlink:href="#a5FIQW1WkG" opacity="1" fill="#e6e6e6" fill-opacity="1"></use><g><use xlink:href="#a5FIQW1WkG" opacity="1" fill-opacity="0" stroke="#000000" stroke-width="1" stroke-opacity="0"></use></g></g><g><use xlink:href="#b6GeZlkcfD" opacity="1" fill="#ebbc96" fill-opacity="1"></use><g><use xlink:href="#b6GeZlkcfD" opacity="1" fill-opacity="0" stroke="#000000" stroke-width="1" stroke-opacity="0"></use></g></g><g><use xlink:href="#b5s6Aqlzt" opacity="1" fill="#4a4949" fill-opacity="1"></use><g><use xlink:href="#b5s6Aqlzt" opacity="1" fill-opacity="0" stroke="#000000" stroke-width="1" stroke-opacity="0"></use></g></g><g><use xlink:href="#b2qiKk8Lp" opacity="1" fill="#706f6f" fill-opacity="1"></use><g><use xlink:href="#b2qiKk8Lp" opacity="1" fill-opacity="0" stroke="#000000" stroke-width="1" stroke-opacity="0"></use></g></g><g><use xlink:href="#c1HlcGQIrN" opacity="1" fill="#8f8d8e" fill-opacity="1"></use><g><use xlink:href="#c1HlcGQIrN" opacity="1" fill-opacity="0" stroke="#000000" stroke-width="1" stroke-opacity="0"></use></g></g><g><use xlink:href="#b1E22GxuEj" opacity="1" fill="#4a4949" fill-opacity="1"></use><g><use xlink:href="#b1E22GxuEj" opacity="1" fill-opacity="0" stroke="#000000" stroke-width="1" stroke-opacity="0"></use></g></g><g><use xlink:href="#b22TZrrjnC" opacity="1" fill="#706f6f" fill-opacity="1"></use><g><use xlink:href="#b22TZrrjnC" opacity="1" fill-opacity="0" stroke="#000000" stroke-width="1" stroke-opacity="0"></use></g></g><g><use xlink:href="#a2I8cP1xR3" opacity="1" fill="#8f8d8e" fill-opacity="1"></use><g><use xlink:href="#a2I8cP1xR3" opacity="1" fill-opacity="0" stroke="#000000" stroke-width="1" stroke-opacity="0"></use></g></g><g><use xlink:href="#a4MKhsInP" opacity="1" fill="#8f8d8e" fill-opacity="1"></use><g><use xlink:href="#a4MKhsInP" opacity="1" fill-opacity="0" stroke="#000000" stroke-width="1" stroke-opacity="0"></use></g></g><g><use xlink:href="#h2WtcwqfBc" opacity="1" fill="#cccccc" fill-opacity="1"></use><g><use xlink:href="#h2WtcwqfBc" opacity="1" fill-opacity="0" stroke="#000000" stroke-width="1" stroke-opacity="0"></use></g></g><g><use xlink:href="#b37TAOJ7Fn" opacity="1" fill="#ebbc96" fill-opacity="1"></use><g><use xlink:href="#b37TAOJ7Fn" opacity="1" fill-opacity="0" stroke="#000000" stroke-width="1" stroke-opacity="0"></use></g></g><g><use xlink:href="#b1bY6hf0Ip" opacity="1" fill="#ebbc96" fill-opacity="1"></use><g><use xlink:href="#b1bY6hf0Ip" opacity="1" fill-opacity="0" stroke="#000000" stroke-width="1" stroke-opacity="0"></use></g></g><g><use xlink:href="#c58xMCdgLQ" opacity="1" fill="#3d3c3c" fill-opacity="1"></use><g><use xlink:href="#c58xMCdgLQ" opacity="1" fill-opacity="0" stroke="#000000" stroke-width="1" stroke-opacity="0"></use></g></g><g><use xlink:href="#b3r2iv9Z8" opacity="1" fill="#ebbc96" fill-opacity="1"></use><g><use xlink:href="#b3r2iv9Z8" opacity="1" fill-opacity="0" stroke="#000000" stroke-width="1" stroke-opacity="0"></use></g></g></g></g></svg>